<svg xmlns="http://www.w3.org/2000/svg" width="200" height="200" viewBox="0 0 200 200">
  <defs>
    <!-- HoneyHive Orange Gradient -->\n    <linearGradient id="orange-gradient" x1="0%" y1="0%" x2="100%" y2="100%">
      <stop offset="0%" style="stop-color:#ff6b35;stop-opacity:1"/>
      <stop offset="100%" style="stop-color:#ff8c5d;stop-opacity:1"/>
    </linearGradient>
    
    <!-- Green Gradient for passed gates -->
    <linearGradient id="green-gradient" x1="0%" y1="0%" x2="100%" y2="100%">
      <stop offset="0%" style="stop-color:#10b981;stop-opacity:1"/>
      <stop offset="100%" style="stop-color:#059669;stop-opacity:1"/>
    </linearGradient>
  </defs>
  
  <!-- Background -->
  <rect width="200" height="200" fill="none"/>
  
  <!-- Window panes grid -->
  <g id="window-panes">
    <!-- Pane 1 (top-left) - PASSED with GREEN border and checkmark -->
    <rect x="30" y="30" width="65" height="65" rx="6" fill="rgba(34, 197, 94, 0.15)" stroke="url(#green-gradient)" stroke-width="3"/>
    <path d="M 45 62 L 55 72 L 80 47" stroke="#10b981" stroke-width="5" fill="none" stroke-linecap="round" stroke-linejoin="round"/>
    
    <!-- Pane 2 (top-right) - PASSED with GREEN border and checkmark -->
    <rect x="105" y="30" width="65" height="65" rx="6" fill="rgba(34, 197, 94, 0.15)" stroke="url(#green-gradient)" stroke-width="3"/>
    <path d="M 120 62 L 130 72 L 155 47" stroke="#10b981" stroke-width="5" fill="none" stroke-linecap="round" stroke-linejoin="round"/>
    
    <!-- Pane 3 (bottom-left) - PASSED with GREEN border and checkmark -->
    <rect x="30" y="105" width="65" height="65" rx="6" fill="rgba(34, 197, 94, 0.15)" stroke="url(#green-gradient)" stroke-width="3"/>
    <path d="M 45 137 L 55 147 L 80 122" stroke="#10b981" stroke-width="5" fill="none" stroke-linecap="round" stroke-linejoin="round"/>
    
    <!-- Pane 4 (bottom-right) - GATED with ORANGE border and padlock -->
    <rect x="105" y="105" width="65" height="65" rx="6" fill="rgba(255, 140, 93, 0.2)" stroke="url(#orange-gradient)" stroke-width="3"/>
    <!-- Lock icon - orange -->
    <rect x="125" y="142" width="20" height="18" rx="2" fill="#ff8c5d"/>
    <path d="M 130 142 L 130 135 Q 130 128 137.5 128 Q 145 128 145 135 L 145 142" stroke="#ff8c5d" stroke-width="4" fill="none" stroke-linecap="round"/>
  </g>
</svg>
